<?xml version="1.0" encoding="utf-8"?>
<!-- Generator: Adobe Illustrator 22.0.0, SVG Export Plug-In . SVG Version: 6.00 Build 0)  -->
<svg version="1.1" id="图层_1" xmlns="http://www.w3.org/2000/svg" xmlns:xlink="http://www.w3.org/1999/xlink" x="0px" y="0px"
	 viewBox="0 0 56.4 22" style="enable-background:new 0 0 56.4 22;" xml:space="preserve">
<style type="text/css">
	.st0{fill:none;stroke:#FFFFFF;stroke-miterlimit:10;}
	.st1{fill:none;}
	.st2{fill:#FFFFFF;}
</style>
<title>butterfryl</title>
<path class="st0" d="M1.5,20.5h49v-19h-49V20.5z M6.1,5.5c0-0.4,0.3-0.8,0.8-0.8h38.3c0.4,0,0.8,0.3,0.8,0.8v11
	c0,0.4-0.3,0.7-0.8,0.8H6.8c-0.4,0-0.7-0.3-0.8-0.8L6.1,5.5z"/>
<rect x="51.5" y="7.9" class="st0" width="3.4" height="5.9"/>
<g>
	<path class="st1" d="M1.5,20.5h49V7.4l0-5.9h-49V20.5z M5.6,5.5c0-0.7,0.6-1.3,1.3-1.3h38.3c0.7,0,1.3,0.6,1.3,1.3v11.1
		c0,0.7-0.6,1.3-1.3,1.3H6.8c-0.7,0-1.3-0.6-1.3-1.3V5.5z"/>
	<polygon class="st1" points="51.5,13.9 54.9,13.9 54.9,7.9 51.5,7.9 	"/>
	<path class="st2" d="M55.4,6.9C55.4,6.9,55.4,6.9,55.4,6.9h-3.9V1c0-0.3-0.2-0.5-0.5-0.5H1C0.8,0.5,0.5,0.8,0.5,1v20
		c0,0.3,0.2,0.5,0.5,0.5h50c0.3,0,0.5-0.2,0.5-0.5v-6.1h3.9c0.3,0,0.5-0.2,0.5-0.5V7.5C55.9,7.2,55.7,7,55.4,6.9z M50.5,7.4v13.1
		h-49v-19h49L50.5,7.4z M54.9,13.9h-3.3V7.9h3.4L54.9,13.9z"/>
	<path class="st2" d="M6.8,16.8h38.3c0.1,0,0.3-0.1,0.3-0.3V5.5c0-0.1-0.1-0.3-0.3-0.3H6.8c-0.1,0-0.3,0.1-0.3,0.3v11.1
		C6.6,16.7,6.7,16.8,6.8,16.8z"/>
	<path class="st2" d="M6.8,17.8h38.3c0.7,0,1.3-0.6,1.3-1.3V5.5c0-0.7-0.6-1.3-1.3-1.3H6.8c-0.7,0-1.3,0.6-1.3,1.3v11.1
		C5.6,17.2,6.2,17.8,6.8,17.8z M6.6,5.5c0-0.1,0.1-0.3,0.3-0.3h38.3c0.1,0,0.3,0.1,0.3,0.3v11.1c0,0.1-0.1,0.3-0.3,0.3H6.8
		c-0.1,0-0.3-0.1-0.3-0.3V5.5z"/>
</g>
</svg>
