<?xml version="1.0" encoding="utf-8"?>
<!-- Generator: Adobe Illustrator 22.0.0, SVG Export Plug-In . SVG Version: 6.00 Build 0)  -->
<svg version="1.1" id="图层_1" xmlns="http://www.w3.org/2000/svg" xmlns:xlink="http://www.w3.org/1999/xlink" x="0px" y="0px"
	 viewBox="0 0 800 600" style="enable-background:new 0 0 800 600;" xml:space="preserve">
<style type="text/css">
	.st0{fill:url(#SVGID_1_);}
</style>
<linearGradient id="SVGID_1_" gradientUnits="userSpaceOnUse" x1="257.2293" y1="238.9512" x2="326.5519" y2="308.2738">
	<stop  offset="0" style="stop-color:#6534ED"/>
	<stop  offset="0.475" style="stop-color:#C25AED"/>
	<stop  offset="1" style="stop-color:#BF008A;stop-opacity:0.7"/>
</linearGradient>
<path class="st0" d="M332.8,265l-11.7-24.3c-0.1-0.2-0.3-0.4-0.4-0.6c-2-3.1-5.5-5.2-9.5-5.2c-0.4,0-0.8,0-1.2,0.1h-9
	c-1.9,5.5-7,9.4-13.2,9.4s-11.3-3.9-13.2-9.4h-8.2c-0.4,0-0.8-0.1-1.2-0.1c-5.2,0-9.5,3.5-10.9,8.2l-10.4,21.9c-0.5,1,0,2.2,1,2.7
	l10.2,4.8c1,0.5,2.2,0,2.7-1l5.7-12.1l1.4,48.9c0,0.8,0.7,1.5,1.5,1.5h43.6c0.8,0,1.5-0.7,1.5-1.5l1.4-49.9l6.3,13
	c0.5,1,1.7,1.4,2.7,0.9l10.2-4.9C332.8,267.2,333.3,266,332.8,265z"/>
</svg>
